<svg xmlns="http://www.w3.org/2000/svg" width="846" height="792" viewBox="0 0 846 792" version="1.1"><path d="M 397.597 11.547 C 372.401 16.288, 347.567 29.897, 330.226 48.466 C 322.322 56.929, 317.352 64.039, 311.678 75 L 307.795 82.500 327.148 82.789 L 346.500 83.078 348.993 79.789 C 366.858 56.214, 391.301 43.839, 420 43.839 C 444.105 43.839, 464.127 51.969, 480.558 68.428 C 484.990 72.868, 489.715 77.980, 491.058 79.789 L 493.500 83.078 512.765 82.789 L 532.030 82.500 527.972 74.567 C 512.487 44.294, 484.968 22.610, 450.385 13.431 C 441.947 11.191, 437.938 10.752, 423 10.433 C 410.343 10.163, 403.313 10.471, 397.597 11.547 M 590 312.824 C 590 346.374, 573.300 380.917, 548.612 398.432 C 535.630 407.642, 517.222 415.093, 497.804 418.997 C 476.312 423.318, 465.225 424.103, 417.250 424.694 L 371 425.264 370.999 455.882 C 370.998 472.722, 370.700 509.788, 370.335 538.250 L 369.673 590 264.269 590 L 158.865 590 159.553 592.250 C 165.597 612.006, 180.414 629.676, 198.367 638.536 C 214.530 646.514, 198.613 645.965, 414 645.965 C 578.942 645.965, 607.502 645.756, 613.500 644.505 C 624.418 642.226, 637.444 635.264, 646.354 626.943 C 658.867 615.257, 665.686 603.353, 670.315 585.109 L 672.500 576.500 672.243 440.250 L 671.986 304 630.993 304 L 590 304 590 312.824 M 18.632 693.907 L 13.764 694.500 13.632 740.250 L 13.500 786 24.250 786 L 35 786 35 772.650 L 35 759.300 46.154 758.711 C 55.902 758.197, 58.077 757.740, 63.404 755.086 C 74.948 749.334, 79.644 739.354, 78.829 722.305 C 78.115 707.371, 71.937 697.841, 60.833 694.543 C 55.518 692.965, 29.578 692.574, 18.632 693.907 M 157 694.545 C 145.997 697.611, 138.946 704.903, 134.802 717.500 C 132.770 723.680, 132.508 726.374, 132.572 740.500 C 132.650 757.870, 133.932 764.090, 139.335 773.309 C 146.074 784.808, 164.559 790.514, 182.500 786.631 C 202 782.412, 210.302 768.682, 210.394 740.500 C 210.474 716.141, 204.354 702.838, 190 696.171 C 185.351 694.012, 182.798 693.570, 173.500 693.314 C 165.853 693.104, 160.824 693.479, 157 694.545 M 284.500 694.399 C 278.140 696.410, 274.611 698.582, 270.741 702.864 C 266.753 707.279, 265.011 712.184, 265.011 719 C 265.011 731.647, 270.019 737.520, 288.505 746.557 C 302.991 753.638, 306.351 756.373, 306.220 760.979 C 306.079 765.924, 305.106 767.713, 301.820 769.075 C 298.047 770.637, 287.100 769.303, 275.977 765.924 C 271.962 764.705, 268.481 764.138, 268.015 764.629 C 267.560 765.108, 266.227 768.643, 265.054 772.484 C 262.491 780.875, 262.367 780.715, 274.482 784.691 C 281.152 786.880, 284.435 787.337, 294.014 787.411 C 305.144 787.497, 305.756 787.388, 312.363 784.139 C 322.734 779.038, 327.798 771.009, 327.902 759.500 C 328.014 747.097, 322.539 740.825, 303.445 731.479 C 289.178 724.495, 286.667 722.478, 286.667 718 C 286.667 713.080, 289.430 710.995, 295.905 711.031 C 301.321 711.061, 313.835 712.410, 319.052 713.526 C 321.537 714.058, 321.647 713.852, 323.196 705.786 C 324.071 701.229, 324.613 697.316, 324.401 697.091 C 324.188 696.866, 320.299 695.864, 315.757 694.864 C 306.169 692.755, 290.439 692.520, 284.500 694.399 M 386 740 L 386 786 396.657 786 L 407.314 786 406.646 767.500 L 405.978 749 421.147 749 L 436.316 749 435.672 767.500 L 435.029 786 446.024 786 L 457.020 786 456.760 740.250 L 456.500 694.500 445.763 694.216 L 435.026 693.933 435.671 712.466 L 436.316 731 421.147 731 L 405.978 731 406.646 712.500 L 407.314 694 396.657 694 L 386 694 386 740 M 35 725.428 L 35 740.856 40.554 741.550 C 43.609 741.932, 47.741 741.979, 49.735 741.656 C 56.015 740.637, 56.500 739.469, 56.500 725.384 C 56.500 709.933, 56.555 710, 43.809 710 L 35 710 35 725.428 M 164.333 712.038 C 156.410 714.480, 153.366 724.282, 154.206 744.656 C 155.022 764.482, 158.334 769, 172.050 769 C 178.804 769, 179.383 768.817, 182.497 765.703 C 184.310 763.890, 186.298 760.627, 186.914 758.453 C 188.710 752.113, 189.315 737.146, 188.116 728.709 C 186.865 719.905, 185.070 715.747, 181.515 713.418 C 178.561 711.482, 168.704 710.691, 164.333 712.038" stroke="none" fill="#14244c" fill-rule="evenodd"/><path d="M 215 95.961 C 206.577 97.296, 195.496 102.521, 186.087 109.594 C 174.592 118.235, 164.364 133.229, 158.865 149.500 L 156.500 156.500 156.234 335.750 L 155.968 515 195.984 515 L 236 515 236.152 355.250 C 236.236 267.387, 236.355 194.998, 236.417 194.386 C 236.479 193.773, 237.141 192.535, 237.888 191.636 C 238.634 190.736, 238.895 190, 238.467 190 C 238.040 190, 238.495 189.111, 239.479 188.024 C 240.462 186.937, 241.606 186.257, 242.020 186.513 C 242.435 186.769, 243.338 186.297, 244.029 185.465 C 245.136 184.131, 257.793 183.968, 351.392 184.084 C 409.751 184.156, 457.950 184.504, 458.500 184.858 C 459.050 185.211, 461.300 185.602, 463.500 185.726 C 470.786 186.137, 473.486 186.522, 474.759 187.330 C 475.451 187.769, 476.876 187.857, 477.925 187.524 C 478.974 187.191, 480.144 187.423, 480.525 188.040 C 480.906 188.657, 482.267 188.899, 483.548 188.577 C 484.829 188.256, 486.144 188.425, 486.471 188.953 C 486.797 189.481, 487.679 189.677, 488.431 189.388 C 489.183 189.100, 490.083 189.325, 490.431 189.888 C 490.779 190.452, 491.725 190.659, 492.532 190.349 C 493.339 190.040, 494 190.332, 494 191 C 494 191.668, 494.661 191.960, 495.468 191.651 C 496.275 191.341, 497.221 191.548, 497.569 192.112 C 497.917 192.675, 498.817 192.900, 499.569 192.612 C 500.321 192.323, 501.206 192.525, 501.537 193.060 C 501.868 193.595, 502.557 193.774, 503.069 193.457 C 503.581 193.141, 504 193.407, 504 194.048 C 504 194.689, 504.675 194.955, 505.500 194.638 C 506.325 194.322, 507 194.499, 507 195.031 C 507 195.564, 507.337 195.947, 507.750 195.882 C 508.162 195.816, 508.837 195.873, 509.250 196.007 C 509.663 196.140, 510.337 196.322, 510.750 196.410 C 511.163 196.499, 512.453 197.102, 513.619 197.750 C 514.784 198.399, 516.021 198.645, 516.369 198.298 C 516.716 197.951, 517 198.218, 517 198.892 C 517 199.566, 517.450 199.840, 518 199.500 C 518.550 199.160, 519 199.385, 519 200 C 519 200.615, 519.450 200.840, 520 200.500 C 520.550 200.160, 521 200.385, 521 201 C 521 201.615, 521.450 201.840, 522 201.500 C 522.550 201.160, 523 201.385, 523 202 C 523 202.615, 523.414 202.862, 523.919 202.550 C 524.425 202.237, 525.496 202.639, 526.300 203.443 C 527.104 204.247, 528.040 204.626, 528.381 204.286 C 528.721 203.945, 529 204.218, 529 204.892 C 529 205.566, 529.403 205.869, 529.895 205.565 C 530.388 205.260, 531.059 205.712, 531.388 206.569 C 531.717 207.426, 532.439 207.847, 532.993 207.504 C 533.547 207.162, 534 207.385, 534 208 C 534 208.615, 534.403 208.869, 534.895 208.565 C 535.388 208.260, 536.073 208.748, 536.419 209.649 C 536.764 210.549, 537.334 211, 537.684 210.649 C 538.034 210.299, 538.954 210.917, 539.729 212.023 C 540.503 213.129, 541.509 213.804, 541.964 213.522 C 542.418 213.241, 543.050 213.688, 543.367 214.515 C 543.685 215.342, 544.347 215.902, 544.840 215.759 C 545.333 215.617, 546.729 216.625, 547.944 218 C 549.159 219.375, 549.821 219.825, 549.415 219 C 549.010 218.175, 552.227 221.100, 556.564 225.500 C 560.902 229.900, 564.349 233.838, 564.225 234.250 C 564.101 234.662, 588.284 235, 617.964 235 L 671.928 235 672.214 212.250 C 672.658 176.941, 671.683 157.895, 669.003 149.500 C 663.961 133.702, 653.515 118.316, 641.913 109.594 C 635.119 104.486, 632.236 102.860, 622 98.358 L 615.500 95.500 417.500 95.374 C 308.600 95.305, 217.475 95.569, 215 95.961 M 371 304.503 L 371 332.107 406.014 331.936 C 425.271 331.842, 441.261 331.387, 441.546 330.926 C 441.831 330.465, 442.667 330.319, 443.403 330.601 C 444.140 330.884, 445.422 330.436, 446.252 329.605 C 447.082 328.775, 448.040 328.374, 448.381 328.714 C 448.721 329.055, 449 328.733, 449 328 C 449 327.267, 449.306 326.973, 449.681 327.347 C 450.579 328.245, 456.084 322.945, 455.401 321.840 C 455.111 321.370, 455.574 320.717, 456.431 320.388 C 457.288 320.059, 457.740 319.388, 457.435 318.895 C 457.131 318.403, 457.385 318, 458 318 C 458.615 318, 458.859 317.581, 458.543 317.069 C 458.226 316.557, 458.455 315.837, 459.052 315.468 C 459.648 315.099, 459.900 314.183, 459.612 313.431 C 459.323 312.679, 459.518 311.798, 460.044 311.473 C 461.354 310.663, 461.258 300.277, 459.932 299.458 C 459.344 299.095, 459.100 298.183, 459.388 297.431 C 459.677 296.679, 459.475 295.794, 458.940 295.463 C 458.405 295.132, 458.207 294.474, 458.500 294 C 458.793 293.526, 458.568 292.851, 458 292.500 C 457.432 292.149, 457.226 291.443, 457.543 290.931 C 457.859 290.419, 457.641 290, 457.059 290 C 456.477 290, 456.113 289.610, 456.250 289.132 C 456.388 288.655, 455.375 287.271, 454 286.056 C 452.625 284.841, 452.175 284.184, 453 284.596 C 454.016 285.103, 453.893 284.651, 452.616 283.195 C 451.580 282.014, 450.343 281.288, 449.866 281.583 C 449.390 281.877, 449 281.615, 449 281 C 449 280.385, 448.550 280.160, 448 280.500 C 447.450 280.840, 447 280.615, 447 280 C 447 279.385, 446.550 279.160, 446 279.500 C 445.450 279.840, 445 279.656, 445 279.090 C 445 278.525, 444.325 278.322, 443.500 278.638 C 442.675 278.955, 442 278.767, 442 278.221 C 442 277.586, 429.219 277.169, 406.500 277.064 L 371 276.899 371 304.503 M 557.971 389.750 L 551.500 396.500 558.250 390.029 C 561.962 386.470, 565 383.432, 565 383.279 C 565 382.543, 563.982 383.480, 557.971 389.750 M 370.240 472.750 L 370.480 521.500 370.750 473.262 L 371.019 425.024 409.260 424.750 L 447.500 424.476 408.750 424.238 L 370 424 370.240 472.750 M 519.989 694.250 C 519.983 694.388, 519.870 715.088, 519.739 740.250 L 519.500 786 530.232 786 L 540.963 786 541.232 763.003 L 541.500 740.007 556.373 763.003 L 571.247 786 583.671 786 L 596.096 786 592.848 781.250 C 591.062 778.638, 583.600 767.819, 576.266 757.210 C 568.192 745.529, 563.222 737.442, 563.667 736.710 C 564.071 736.044, 571.062 726.444, 579.201 715.376 C 587.341 704.308, 594 694.971, 594 694.626 C 594 694.282, 588.676 694, 582.170 694 L 570.340 694 555.920 715.084 L 541.500 736.169 541.230 715.084 L 540.960 694 530.480 694 C 524.716 694, 519.995 694.112, 519.989 694.250 M 660.112 697.250 C 658.802 701.333, 636 784.765, 636 785.476 C 636 785.764, 640.869 786, 646.820 786 L 657.639 786 660 776 L 662.361 766 674.500 766 L 686.639 766 689 776 L 691.361 786 702.248 786 C 712.142 786, 713.089 785.840, 712.631 784.250 C 712.353 783.288, 707.342 764.950, 701.494 743.500 C 695.646 722.050, 690.185 702.138, 689.359 699.250 L 687.858 694 674.507 694 L 661.155 694 660.112 697.250 M 765 739.971 L 765 786 774.581 786 L 784.161 786 783.570 768.750 C 783.245 759.263, 782.719 744.300, 782.402 735.500 C 782.085 726.700, 782.039 719.725, 782.298 720 C 782.558 720.275, 788.406 734, 795.293 750.500 C 802.180 767, 808.379 781.737, 809.068 783.250 L 810.321 786 823.661 786 L 837 786 837 740 L 837 694 827.402 694 L 817.804 694 818.398 726.750 C 818.724 744.763, 818.755 759.050, 818.466 758.500 C 818.177 757.950, 811.978 743.325, 804.691 726 L 791.440 694.500 778.220 694.221 L 765 693.942 765 739.971 M 670.711 729.651 C 668.664 738.368, 666.991 746.063, 666.994 746.750 C 666.998 747.638, 669.170 748, 674.500 748 C 678.625 748, 682 747.578, 682 747.062 C 682 746.244, 675.388 716.909, 674.695 714.651 C 674.552 714.185, 672.759 720.935, 670.711 729.651" stroke="none" fill="#f31c84" fill-rule="evenodd"/></svg>